# xmcd CD database file
#
# Track frame offsets:
#	150
#	15303
#	32989
#	49831
#	70245
#	85861
#	104129
#	120885
#	135114
#	150842
#
# Disc length: 2243 seconds
#
# Revision: 0
# Processed by: cddbd v1.5.1PL2 Copyright (c) Steve Scherf et al.
# Submitted via: CDex 1.51
#
DISCID=6f08c10a
DTITLE=Allan Truesdell - First Run
DYEAR=2002
DGENRE=Blues
TTITLE0=18 Years
TTITLE1=Air
TTITLE2=Another Day, Another Night
TTITLE3=High Authority
TTITLE4=Dishonest Man
TTITLE5=I Don't Need You
TTITLE6=The Mile
TTITLE7=Washed Up
TTITLE8=Whisper My Name
TTITLE9=Too Young
EXTD=YEAR: 2002
EXTT0=
EXTT1=
EXTT2=
EXTT3=
EXTT4=
EXTT5=
EXTT6=
EXTT7=
EXTT8=
EXTT9=
PLAYORDER=
